<svg xmlns="http://www.w3.org/2000/svg" viewBox="0 0 317.96 13.98"><defs><style>.cls-1{fill:#769293;}</style></defs><g id="Livello_2" data-name="Livello 2"><g id="Livello_1-2" data-name="Livello 1"><path class="cls-1" d="M318,2a53.51,53.51,0,0,1-19.4,7.49,46.34,46.34,0,0,1-10.67.62,68.4,68.4,0,0,1-10.45-1.55c-1.64-.32-3.23-.59-4.79-.81A41.07,41.07,0,0,0,268,7.44a41.6,41.6,0,0,0-9.24.85,23.37,23.37,0,0,0-4.16,1.44,32.55,32.55,0,0,1-5.24,2,26.63,26.63,0,0,1-5.74.81c-.93.05-1.84.05-2.75,0l-1.36,0-1.37-.11a45.9,45.9,0,0,1-10.61-2.22c-3.34-1.11-6.43-2.33-9.58-3.19a44.16,44.16,0,0,0-9.67-1.56,30.57,30.57,0,0,0-9.72.77c-1.55.42-3.1,1-4.78,1.61A27.47,27.47,0,0,1,188.54,9a56.29,56.29,0,0,1-10.46.16A82.46,82.46,0,0,1,167.8,7.51,50,50,0,0,0,158,6.2a43.15,43.15,0,0,0-9.56,1,22,22,0,0,0-4.31,1.43A36.1,36.1,0,0,1,139,10.47a37.32,37.32,0,0,1-5.38,1.06,44.33,44.33,0,0,1-5.45.48,42.28,42.28,0,0,1-11-1.18l-5-1.19c-1.58-.35-3.13-.68-4.67-.88a47.22,47.22,0,0,0-9.37-.4,41.91,41.91,0,0,0-9.11,1.37c-1.47.38-3,.89-4.51,1.43s-3.27,1.19-5.1,1.69a32.81,32.81,0,0,1-5.79,1c-1,.07-2,.09-2.93.09s-1.92-.07-2.85-.17-1.86-.21-2.78-.35-1.83-.28-2.75-.52a33.24,33.24,0,0,1-5.45-1.67C55.12,10.57,53.45,9.71,52,9A16.67,16.67,0,0,0,48.1,7.53a21.72,21.72,0,0,0-8.67.14,50.17,50.17,0,0,0-9,3.28,38.55,38.55,0,0,1-5.15,1.8,27.82,27.82,0,0,1-5.51.78A28.49,28.49,0,0,1,9.1,11.75,34.19,34.19,0,0,1,0,6.61l.43-.68A37.75,37.75,0,0,0,9.82,9.21a27.38,27.38,0,0,0,9.54.24A26.58,26.58,0,0,0,28.1,6.17a47.56,47.56,0,0,1,9.72-4.59A30.72,30.72,0,0,1,43.42.45a24.57,24.57,0,0,1,5.93,0,23.88,23.88,0,0,1,5.73,1.72c1.66.7,3.06,1.31,4.49,1.77a28.78,28.78,0,0,0,4.35,1.07c.74.16,1.52.22,2.28.33s1.53.13,2.29.19a24.24,24.24,0,0,0,8.61-.94c1.42-.45,2.91-1,4.55-1.57S85,1.87,86.86,1.43A44.86,44.86,0,0,1,97.89,0a55.28,55.28,0,0,1,10.94.85c1.82.31,3.58.77,5.3,1.23L119,3.49a36.33,36.33,0,0,0,9.15,1.44,41.44,41.44,0,0,0,4.71-.14,46.6,46.6,0,0,0,4.69-.57A30.73,30.73,0,0,0,142.09,3a27.22,27.22,0,0,1,5.51-1.2c1.83-.22,3.6-.24,5.39-.28l2.69.08c.9.09,1.79.13,2.68.26a43.2,43.2,0,0,1,5.26,1c1.71.44,3.38.92,5,1.4s3.23,1,4.84,1.33,3.24.65,4.88.88a41.46,41.46,0,0,0,9.89.14A20.44,20.44,0,0,0,193,5.51c1.54-.52,3.12-1.25,4.83-1.78a39.56,39.56,0,0,1,10.46-1.57,53.43,53.43,0,0,1,10.56.52c3.52.5,6.91,1.39,10.13,2a46.07,46.07,0,0,0,9.47,1,35.43,35.43,0,0,0,9-.94,33.37,33.37,0,0,0,4.25-1.68,28,28,0,0,1,5.49-1.79,43.58,43.58,0,0,1,11-.69,49.53,49.53,0,0,1,10.64,1.87,80.24,80.24,0,0,0,9.56,2.26,52.8,52.8,0,0,0,9.68.49,70.27,70.27,0,0,0,19.52-4Z"/></g></g></svg>