<svg xmlns="http://www.w3.org/2000/svg" viewBox="0 0 163.73 168.57"><defs><style>.cls-1{fill:#b35362;}</style></defs><g id="Livello_2" data-name="Livello 2"><g id="Layer_1" data-name="Layer 1"><path class="cls-1" d="M132.24,219.2c-14.53,6.54-27.12,8.72-44.32,8.72-40.21,0-75.57-28.83-75.57-76.3,0-49.41,35.85-92.28,90.59-92.28,42.62,0,73.14,29.31,73.14,70,0,35.36-19.86,57.64-46,57.64-11.38,0-19.62-5.81-20.83-18.65h-.48C101.24,180.69,90.34,187,77.5,187c-15.74,0-27.12-11.62-27.12-31.48,0-29.55,21.8-56.44,56.67-56.44,10.66,0,22.77,2.67,28.83,6.06l-7.27,44.81c-2.42,14.29-.73,20.83,6,21.07,10.42.24,23.5-13.08,23.5-40.93,0-31.49-20.35-55.95-57.89-55.95-37.06,0-69.51,29.06-69.51,75.32,0,40.45,25.92,63.46,62,63.46,12.36,0,25.43-2.66,35.12-7.75Zm-21.55-100a29.57,29.57,0,0,0-7.51-1c-16,0-28.58,15.74-28.58,34.39,0,9.2,4.12,15,12.11,15,9,0,18.41-11.39,20.59-25.43Z" transform="translate(-12.35 -59.34)"/></g></g></svg>