<svg xmlns="http://www.w3.org/2000/svg" viewBox="0 0 462.02 42.83"><defs><style>.cls-1{fill:#769293;}</style></defs><g id="Livello_2" data-name="Livello 2"><g id="Livello_1-2" data-name="Livello 1"><path class="cls-1" d="M0,17.41l6.69-3.29,6.84-3,7-2.73c2.36-.81,4.71-1.66,7.1-2.38s4.78-1.46,7.22-2l3.64-.9,3.68-.74c2.45-.55,4.94-.84,7.42-1.27C52,.8,54.53.45,57,.32a106.16,106.16,0,0,1,30.06,2,93.84,93.84,0,0,1,14.52,4.21c4.74,1.73,9.26,3.86,13.79,5.75A84.08,84.08,0,0,0,129.23,17a76.39,76.39,0,0,0,14.49,1.92,80.74,80.74,0,0,0,14.66-.75A68.47,68.47,0,0,0,172.51,14a148,148,0,0,1,14-5.2,67.44,67.44,0,0,1,14.8-2.47c2.5,0,5-.18,7.5,0a67.45,67.45,0,0,1,7.5.59A57.63,57.63,0,0,1,230.83,11c4.64,1.91,9.08,4.07,13.67,5.81,1.13.46,2.29.86,3.45,1.26l1.73.6,1.75.53c1.18.35,2.33.75,3.52,1.05l3.55.91a144.28,144.28,0,0,0,29.1,3.77c9.82.26,19.7-.25,29.58-.8s19.82-1.06,29.66-1.82q7.38-.54,14.75-1.31c4.92-.5,9.81-1.17,14.82-1.6a99.41,99.41,0,0,1,15.14-.19,138.73,138.73,0,0,1,14.95,1.71,127.94,127.94,0,0,1,14.65,3.36c4.81,1.4,9.56,3,14.2,4.81S444.55,33,449,35.24s8.79,4.68,13,7.24l-.19.35A202.92,202.92,0,0,0,434.65,31,154.32,154.32,0,0,0,406,24a115,115,0,0,0-29.23-.77L362,25.09q-7.43.87-14.87,1.49c-5,.4-9.94.69-14.9,1s-9.91.55-14.88.75c-9.92.42-19.89.8-29.92.4a130.29,130.29,0,0,1-15-1.41c-2.49-.35-4.94-.89-7.41-1.33-1.23-.22-2.45-.55-3.67-.82s-2.46-.54-3.66-.89a101.66,101.66,0,0,1-14.26-4.9c-4.63-2-9-4.3-13.51-6.32A55.13,55.13,0,0,0,216,8.64a78.23,78.23,0,0,0-14.68-.91A62,62,0,0,0,186.84,10,128.39,128.39,0,0,0,173,15.25a74.65,74.65,0,0,1-14.32,4.49,81.94,81.94,0,0,1-15,1.35,77.77,77.77,0,0,1-15-1.41,82.58,82.58,0,0,1-14.48-4.37c-4.66-1.85-9.19-3.8-13.77-5.49a105.88,105.88,0,0,0-28.5-6.21c-2.44-.21-4.88-.28-7.32-.35s-4.9,0-7.34.16a142.2,142.2,0,0,0-29,4.64c-2.39.6-4.74,1.37-7.12,2l-7,2.31L7.06,15,.17,17.77Z"/></g></g></svg>