<svg xmlns="http://www.w3.org/2000/svg" viewBox="0 0 273.77 277"><defs><style>.cls-1{fill:#b3535f;}.cls-1,.cls-2{stroke:#b3535f;}.cls-2{fill:#efeae4;}</style></defs><g id="Livello_2" data-name="Livello 2"><g id="Layer_1" data-name="Layer 1"><path class="cls-1" d="M273.27,248.9a27.55,27.55,0,0,1-27.5,27.6H28A27.55,27.55,0,0,1,.5,248.9V28.09A27.54,27.54,0,0,1,28,.5H245.77a27.54,27.54,0,0,1,27.5,27.59Z"/><path class="cls-2" d="M89.23,68c0,10.14-7.48,18.35-19.8,18.35-11.58,0-19.07-8.21-19.07-18.35,0-10.38,7.73-18.34,19.56-18.34S89,57.6,89.23,68Zm-37.9,150.9V100.82H88V218.88Z"/><path class="cls-2" d="M110,138.48c0-14.72-.48-27-1-37.66h31.87l1.69,16.42h.73c4.82-7.73,16.66-19.08,36.45-19.08,24.15,0,42.25,16.18,42.25,51v69.77H185.32V153.45c0-15.21-5.32-25.59-18.6-25.59-10.14,0-16.17,7-18.83,13.76-1,2.41-1.21,5.79-1.21,9.18v68.08H110Z"/></g></g></svg>