<svg xmlns="http://www.w3.org/2000/svg" viewBox="0 0 120.61 86.1"><defs><style>.cls-1{fill:#b35360;}</style></defs><g id="Livello_2" data-name="Livello 2"><g id="logo"><g id="Livello_2-2" data-name="Livello 2"><g id="Livello_1-2" data-name="Livello 1-2"><path class="cls-1" d="M120.61,37a87.12,87.12,0,0,1-7.76,13.86c-1.45,2.18-3,4.3-4.54,6.39a62.48,62.48,0,0,1-5,6C99.68,67,95.49,70.36,92.09,74.32a73.75,73.75,0,0,0-4.85,6.16L86.1,82.1l-.53.83-.28.42-.4.53A6.5,6.5,0,0,1,80,86.1a6.77,6.77,0,0,1-2.83-.65,7.11,7.11,0,0,1-1.25-.79c-.2-.16-.37-.34-.56-.51l-.41-.37C74,82.88,73,82,72.11,81c-1.87-1.83-3.62-3.74-5.39-5.7-3.55-3.86-7.09-7.7-10.31-11.82s-6.24-8.36-9.14-12.76a125.17,125.17,0,0,1-8-13.73l.59-.47A124.9,124.9,0,0,1,51.82,47q5.61,5.51,10.77,11.45c3.43,3.95,6.5,8.17,9.59,12.39,1.55,2.1,3.12,4.2,4.57,6.38.74,1.09,1.45,2.2,2.15,3.32l.22.37a2.12,2.12,0,0,0,.11.21,2.63,2.63,0,0,0,.29.37,2.2,2.2,0,0,0,.87.54,2.5,2.5,0,0,0,2.26-.36l.26-.22.33-.33.69-.71c.44-.49.89-1,1.32-1.45a75.7,75.7,0,0,0,4.91-6.1c3.07-4.24,5.38-9.07,8.25-13.48a59.3,59.3,0,0,1,4.71-6.24q2.49-3,5.2-5.87a86.21,86.21,0,0,1,11.73-10.7Z"/><path class="cls-1" d="M80.76,49.56A88.18,88.18,0,0,1,69,38.87Q66.34,36,63.82,33a62.18,62.18,0,0,1-4.71-6.24c-2.86-4.39-5.17-9.23-8.24-13.46A77.8,77.8,0,0,0,46,7.17c-.43-.48-.89-1-1.33-1.44L44,5l-.28-.34-.25-.21a2.5,2.5,0,0,0-2.26-.36,2.2,2.2,0,0,0-.87.54,3.15,3.15,0,0,0-.36.37,1.66,1.66,0,0,1-.1.21l-.24.37c-.68,1.12-1.4,2.23-2.13,3.31-1.45,2.2-3,4.28-4.57,6.39-3.09,4.22-6.24,8.44-9.61,12.39a157,157,0,0,1-10.8,11.45A125.87,125.87,0,0,1,.57,49.57L0,49.09A125.09,125.09,0,0,1,8,35.36c2.86-4.4,5.93-8.65,9.15-12.76s6.76-8,10.33-11.82c1.75-1.93,3.49-3.88,5.37-5.71.92-.94,1.86-1.85,2.83-2.75L36.06,2a6.47,6.47,0,0,1,.56-.5,7.16,7.16,0,0,1,1.25-.8A6.58,6.58,0,0,1,40.73,0a6.46,6.46,0,0,1,4.88,2.2l.4.52.27.42.54.83,1.11,1.62a71.92,71.92,0,0,0,4.83,6.16c3.43,4,7.62,7.3,11.23,11.1a61,61,0,0,1,5,6c1.57,2.08,3.09,4.22,4.54,6.4A87.46,87.46,0,0,1,81.28,49.1Z"/></g></g></g></g></svg>