<svg xmlns="http://www.w3.org/2000/svg" viewBox="0 0 617.66 112.27"><defs><style>.cls-1{fill:#769293;}.cls-2{fill:#b35360;}</style></defs><g id="Livello_2" data-name="Livello 2"><g id="logo"><path class="cls-1" d="M185.56,16.27h7.93l14.59,40.4,14.59-40.4h7.48V58.91h-7.48V20.83L208.9,58.91H201L187.06,20.38V58.91h-1.5Z" transform="translate(0 -5.19)"/><path class="cls-1" d="M235,46.12V40.28c0-8.9,6.36-13.16,15.34-13.16s15.33,4.26,15.33,13.16v5.84c0,8.9-6.35,13.17-15.33,13.17S235,55,235,46.12Zm23.19,0V40.28c0-6.8-2.32-11.67-7.85-11.67s-7.86,4.87-7.86,11.67v5.84c0,6.81,2.32,11.67,7.86,11.67S258.2,52.93,258.2,46.12Z" transform="translate(0 -5.19)"/><path class="cls-1" d="M270.54,27.49H278V58.91h-7.49Zm25.07-.37-3.44,7.48a22.75,22.75,0,0,0-5.69-.75c-3.37,0-6.73.75-8.45,2.62C280.49,30.93,286.55,27.12,295.61,27.12Z" transform="translate(0 -5.19)"/><path class="cls-1" d="M322.24,49.93c-.6,3.45-3.44,9.36-11.6,9.36C303,59.29,297.1,55,297.1,46.12V40.28c0-8.9,5.69-13.16,13-13.16,7.78,0,12.94,3.36,12.94,10.32,0,8.38-8.23,11.9-14.44,11.9a11.54,11.54,0,0,1-3.81-.53c6.66.08,10.77-4.26,10.77-12.27,0-5.23-1.87-7.93-5.39-7.93s-5.61,3.44-5.61,9.88V45.6a21.54,21.54,0,0,0,.23,3.21c.74,4.94,3.51,7.78,8.15,7.78C317.38,56.59,320.52,53.9,322.24,49.93Z" transform="translate(0 -5.19)"/><path class="cls-1" d="M327.92,27.49h7.48V58.91h-7.48Zm23.64,13.32c0-6.89-2.76-11-7.93-11-4.11,0-6.51,2.69-8.23,6.66a10.49,10.49,0,0,1,10.78-9.35c6.95,0,12.87,4.26,12.87,13.16V58.91h-7.49Z" transform="translate(0 -5.19)"/><path class="cls-1" d="M363.53,50.31c0-11.07,16.16-8.53,20-12.27-.68-5.24-3.37-8.23-7.78-8.23-4.12,0-7.26,2.69-9,6.66.6-3.44,3.44-9.35,11.52-9.35,7,0,12.87,4.26,12.87,13.16V58.91h-7.48V40.81c0-1-.08-1.87-.15-2.7-2.32,4.94-12.27,4.34-12.27,11.75A5.48,5.48,0,0,0,377,55.7,7,7,0,0,0,383.66,51c-.68,5.39-4,8.31-9.21,8.31C368.32,59.29,363.53,55.55,363.53,50.31Z" transform="translate(0 -5.19)"/><path class="cls-1" d="M415.82,16.27h7.93l14.59,40.4,14.59-40.4h7.48V58.91h-7.48V20.83L439.16,58.91h-7.93L417.32,20.38V58.91h-1.5Z" transform="translate(0 -5.19)"/><path class="cls-1" d="M490.56,49.93c-.6,3.45-3.44,9.36-11.6,9.36-7.63,0-13.54-4.27-13.54-13.17V40.28c0-8.9,5.69-13.16,13-13.16,7.78,0,12.94,3.36,12.94,10.32,0,8.38-8.23,11.9-14.44,11.9a11.58,11.58,0,0,1-3.81-.53c6.66.08,10.77-4.26,10.77-12.27,0-5.23-1.87-7.93-5.39-7.93s-5.61,3.44-5.61,9.88V45.6a21.54,21.54,0,0,0,.23,3.21c.75,4.94,3.51,7.78,8.15,7.78C485.7,56.59,488.84,53.9,490.56,49.93Z" transform="translate(0 -5.19)"/><path class="cls-1" d="M496.24,16.27h7.48V58.91h-7.48Z" transform="translate(0 -5.19)"/><path class="cls-1" d="M508.59,16.27h7.48V58.91h-7.48Z" transform="translate(0 -5.19)"/><path class="cls-1" d="M520.56,46.12V40.28c0-8.9,6.35-13.16,15.33-13.16s15.34,4.26,15.34,13.16v5.84c0,8.9-6.36,13.17-15.34,13.17S520.56,55,520.56,46.12Zm23.19,0V40.28c0-6.8-2.32-11.67-7.86-11.67S528,33.48,528,40.28v5.84c0,6.81,2.32,11.67,7.85,11.67S543.75,52.93,543.75,46.12Z" transform="translate(0 -5.19)"/><path class="cls-1" d="M556.09,27.49h7.48V58.91h-7.48Zm23.64,13.32c0-6.89-2.77-11-7.93-11-4.12,0-6.51,2.69-8.23,6.66a10.47,10.47,0,0,1,10.77-9.35c7,0,12.87,4.26,12.87,13.16V58.91h-7.48Z" transform="translate(0 -5.19)"/><path class="cls-1" d="M616.84,49.93c-.6,3.45-3.45,9.36-11.6,9.36-7.63,0-13.54-4.27-13.54-13.17V40.28c0-8.9,5.68-13.16,13-13.16,7.78,0,12.94,3.36,12.94,10.32,0,8.38-8.23,11.9-14.44,11.9a11.64,11.64,0,0,1-3.82-.53c6.66.08,10.78-4.26,10.78-12.27,0-5.23-1.87-7.93-5.39-7.93s-5.61,3.44-5.61,9.88V45.6a21.59,21.59,0,0,0,.22,3.21c.75,4.94,3.52,7.78,8.16,7.78C612,56.59,615.11,53.9,616.84,49.93Z" transform="translate(0 -5.19)"/><g id="Livello_2-2" data-name="Livello 2"><g id="Livello_1-2" data-name="Livello 1-2"><path class="cls-2" d="M157.28,53.4a112.36,112.36,0,0,1-10.12,18.08q-2.83,4.24-5.92,8.33a81.39,81.39,0,0,1-6.51,7.85c-4.74,4.88-10.2,9.29-14.65,14.45a97.7,97.7,0,0,0-6.31,8l-1.5,2.12-.68,1.07-.37.56-.52.68a8.45,8.45,0,0,1-6.38,2.9A8.45,8.45,0,0,1,99,115.59c-.26-.21-.49-.43-.74-.66l-.53-.49q-1.89-1.75-3.7-3.58c-2.44-2.39-4.72-4.88-7-7.44-4.62-5-9.24-10-13.44-15.41s-8.13-10.9-11.92-16.64a161.25,161.25,0,0,1-10.4-17.9l.76-.62A162.84,162.84,0,0,1,67.58,66.49q7.32,7.17,14,14.92c4.47,5.16,8.48,10.66,12.51,16.16,2,2.75,4.07,5.48,6,8.33,1,1.41,1.88,2.86,2.8,4.33l.29.47c0,.09.09.18.14.27a3.05,3.05,0,0,0,.38.49,2.87,2.87,0,0,0,1.14.7,3.25,3.25,0,0,0,2.94-.47l.34-.28.43-.44.89-.92c.59-.64,1.17-1.26,1.73-1.89a98.27,98.27,0,0,0,6.41-8c4-5.53,7-11.83,10.75-17.57a79.56,79.56,0,0,1,6.14-8.14q3.25-3.92,6.78-7.66a112.4,112.4,0,0,1,15.3-13.95Z" transform="translate(0 -5.19)"/><path class="cls-2" d="M105.31,69.82A113.66,113.66,0,0,1,90,55.88q-3.48-3.74-6.77-7.67a81,81,0,0,1-6.15-8.13c-3.73-5.73-6.74-12-10.74-17.56a98.42,98.42,0,0,0-6.41-8c-.55-.64-1.16-1.25-1.73-1.89l-.89-1L57,11.26,56.63,11a3.27,3.27,0,0,0-3-.47,2.87,2.87,0,0,0-1.14.7,5.44,5.44,0,0,0-.47.49,2.59,2.59,0,0,1-.13.28l-.31.47c-.9,1.46-1.82,2.91-2.78,4.33-1.89,2.86-3.94,5.58-6,8.33-4,5.5-8.13,11-12.53,16.16S21.25,51.4,16.27,56.19A164.87,164.87,0,0,1,.75,69.84L0,69.2A160.21,160.21,0,0,1,10.4,51.31C14.12,45.56,18.13,40,22.32,34.66s8.82-10.4,13.48-15.41c2.28-2.52,4.55-5.06,7-7.45,1.21-1.22,2.43-2.41,3.7-3.58L47,7.73a9.05,9.05,0,0,1,.74-.65,8.42,8.42,0,0,1,1.62-1,8.63,8.63,0,0,1,3.73-.85,8.4,8.4,0,0,1,6.36,2.87l.52.68.36.55.7,1.08,1.45,2.11a97.73,97.73,0,0,0,6.3,8C73.27,25.68,78.74,30,83.44,35A78.44,78.44,0,0,1,90,42.81q3.08,4.08,5.92,8.35A113.81,113.81,0,0,1,106,69.22Z" transform="translate(0 -5.19)"/></g></g><path class="cls-1" d="M185.39,83.87H188v19.64h-2.64Z" transform="translate(0 -5.19)"/><path class="cls-1" d="M193,82.49h2.55v21H193Z" transform="translate(0 -5.19)"/><path class="cls-1" d="M209.6,87.32h2.58v5h3.07v2h-3.07v9.21H209.6V94.3h-2v-2h2Z" transform="translate(0 -5.19)"/><path class="cls-1" d="M221.88,104a3.57,3.57,0,0,1-2.57-.94,3.33,3.33,0,0,1-1-2.43V92.27h2.55v7.41a2.53,2.53,0,0,0,.54,1.48,2,2,0,0,0,1.53.62,2.75,2.75,0,0,0,1.67-.56,4.12,4.12,0,0,0,1.21-1.52,5.17,5.17,0,0,0,.46-2.19V92.27h2.52v11.24h-2.31l-.21-2.77.16.52a4.42,4.42,0,0,1-1,1.37,4.74,4.74,0,0,1-1.56,1A5.39,5.39,0,0,1,221.88,104Z" transform="translate(0 -5.19)"/><path class="cls-1" d="M232.12,97.78a5.9,5.9,0,0,1,.8-3,5.83,5.83,0,0,1,2.23-2.15,6.65,6.65,0,0,1,3.25-.79,6.41,6.41,0,0,1,3.2.79,5.58,5.58,0,0,1,2.16,2.15,6.31,6.31,0,0,1,0,6.08A5.6,5.6,0,0,1,241.6,103a6.27,6.27,0,0,1-3.23.81,6.71,6.71,0,0,1-3.22-.75,5.7,5.7,0,0,1-2.21-2.09A5.94,5.94,0,0,1,232.12,97.78Zm2.56,0a4,4,0,0,0,.49,2,3.81,3.81,0,0,0,1.3,1.4,3.41,3.41,0,0,0,1.85.51,3.45,3.45,0,0,0,1.87-.51,3.7,3.7,0,0,0,1.29-1.4,4.28,4.28,0,0,0,0-3.94,3.73,3.73,0,0,0-1.29-1.41,3.52,3.52,0,0,0-3.73,0,3.83,3.83,0,0,0-1.31,1.43A4,4,0,0,0,234.68,97.81Z" transform="translate(0 -5.19)"/><path class="cls-1" d="M258.8,92.27l.22,2.52-.14-.21a5,5,0,0,1,1.78-2,4.8,4.8,0,0,1,2.68-.75,4.16,4.16,0,0,1,1.66.32,3.27,3.27,0,0,1,1.21.87,2.8,2.8,0,0,1,.61,1.34l-.14.11a4.84,4.84,0,0,1,1.81-1.94,4.68,4.68,0,0,1,2.43-.7,3.55,3.55,0,0,1,2.62,1,3.46,3.46,0,0,1,1,2.41v8.34H272V96.1a2.68,2.68,0,0,0-.43-1.46,1.58,1.58,0,0,0-1.37-.61,2.84,2.84,0,0,0-1.75.59,3.75,3.75,0,0,0-1.19,1.52,5,5,0,0,0-.45,2v5.32h-2.56V96.1a2.53,2.53,0,0,0-.45-1.46,1.65,1.65,0,0,0-1.39-.61,2.75,2.75,0,0,0-1.74.59,4,4,0,0,0-1.2,1.53,4.92,4.92,0,0,0-.43,2.07v5.29h-2.56V92.27Z" transform="translate(0 -5.19)"/><path class="cls-1" d="M277.93,97.78a5.9,5.9,0,0,1,.8-3A5.77,5.77,0,0,1,281,92.59a6.64,6.64,0,0,1,3.24-.79,6.42,6.42,0,0,1,3.21.79,5.72,5.72,0,0,1,2.16,2.15,6.39,6.39,0,0,1,0,6.08,5.74,5.74,0,0,1-2.16,2.16,6.27,6.27,0,0,1-3.23.81A6.69,6.69,0,0,1,281,103a5.72,5.72,0,0,1-2.22-2.09A6,6,0,0,1,277.93,97.78Zm2.55,0a4.08,4.08,0,0,0,.49,2,3.84,3.84,0,0,0,1.31,1.4,3.37,3.37,0,0,0,1.84.51,3.49,3.49,0,0,0,1.88-.51,3.78,3.78,0,0,0,1.29-1.4,4.36,4.36,0,0,0,0-3.94A3.81,3.81,0,0,0,286,94.43a3.54,3.54,0,0,0-3.74,0,3.81,3.81,0,0,0-1.3,1.43A4,4,0,0,0,280.48,97.81Z" transform="translate(0 -5.19)"/><path class="cls-1" d="M296,92.27l.19,2.74-.08-.43a4.21,4.21,0,0,1,1.74-2,5.36,5.36,0,0,1,2.85-.75,3.68,3.68,0,0,1,2.6.94,3.18,3.18,0,0,1,1,2.43v8.31h-2.55V96.07a2.34,2.34,0,0,0-.53-1.48,2,2,0,0,0-1.56-.59,3.05,3.05,0,0,0-1.75.55A3.52,3.52,0,0,0,296.72,96a5.12,5.12,0,0,0-.45,2.2v5.27h-2.56V92.27Z" transform="translate(0 -5.19)"/><path class="cls-1" d="M313.33,103.79a5.3,5.3,0,0,1-4.82-2.87,6.49,6.49,0,0,1-.75-3.17,6.12,6.12,0,0,1,.79-3.2,5.26,5.26,0,0,1,2.12-2,6.26,6.26,0,0,1,3-.71,5.79,5.79,0,0,1,2.54.58A4.56,4.56,0,0,1,318.08,94l-.13.9V82.49h2.52v21H318v-2.79l.3.7a6.45,6.45,0,0,1-2.08,1.7A6,6,0,0,1,313.33,103.79Zm.79-2.15a4,4,0,0,0,1.78-.38,3.83,3.83,0,0,0,1.3-1,3.9,3.9,0,0,0,.75-1.51V96.59a3.49,3.49,0,0,0-.78-1.44,3.78,3.78,0,0,0-1.33-1,4.33,4.33,0,0,0-1.72-.34,3.74,3.74,0,0,0-1.88.49,3.68,3.68,0,0,0-1.38,1.36,3.81,3.81,0,0,0-.52,2,3.93,3.93,0,0,0,1.9,3.41A3.59,3.59,0,0,0,314.12,101.64Z" transform="translate(0 -5.19)"/><path class="cls-1" d="M323.87,97.78a5.9,5.9,0,0,1,.8-3,5.83,5.83,0,0,1,2.23-2.15,6.65,6.65,0,0,1,3.25-.79,6.41,6.41,0,0,1,3.2.79,5.58,5.58,0,0,1,2.16,2.15,6.31,6.31,0,0,1,0,6.08,5.6,5.6,0,0,1-2.16,2.16,6.27,6.27,0,0,1-3.23.81,6.71,6.71,0,0,1-3.22-.75,5.79,5.79,0,0,1-2.22-2.09A6,6,0,0,1,323.87,97.78Zm2.55,0a4.08,4.08,0,0,0,.49,2,3.84,3.84,0,0,0,1.31,1.4,3.4,3.4,0,0,0,1.84.51,3.46,3.46,0,0,0,1.88-.51,3.78,3.78,0,0,0,1.29-1.4,4.28,4.28,0,0,0,0-3.94,3.81,3.81,0,0,0-1.29-1.41,3.31,3.31,0,0,0-1.88-.53,3.37,3.37,0,0,0-1.86.54,3.89,3.89,0,0,0-1.3,1.43A4,4,0,0,0,326.42,97.81Z" transform="translate(0 -5.19)"/><path class="cls-1" d="M352.94,103.79a6.11,6.11,0,0,1-2.87-.68,5.12,5.12,0,0,1-2.05-2,6.42,6.42,0,0,1-.76-3.22,6.35,6.35,0,0,1,.79-3.26,5.46,5.46,0,0,1,2.12-2.09,5.94,5.94,0,0,1,2.91-.74,4.75,4.75,0,0,1,2.67.72,4.94,4.94,0,0,1,1.65,1.7l-.17.41.25-2.36h2.33v11.24h-2.52v-2.93l.3.65a3.61,3.61,0,0,1-.52.69,6.38,6.38,0,0,1-1,.86,5.29,5.29,0,0,1-1.38.72A5.21,5.21,0,0,1,352.94,103.79Zm.68-2.1a4,4,0,0,0,1.71-.35,3.37,3.37,0,0,0,1.27-1,4,4,0,0,0,.69-1.53v-2.2a3.49,3.49,0,0,0-.76-1.42,3.74,3.74,0,0,0-1.31-1,3.93,3.93,0,0,0-1.65-.34,3.64,3.64,0,0,0-1.88.49,3.55,3.55,0,0,0-1.34,1.35,4,4,0,0,0-.51,2,3.94,3.94,0,0,0,1.91,3.4A3.6,3.6,0,0,0,353.62,101.69Z" transform="translate(0 -5.19)"/><path class="cls-1" d="M379.4,103.79a5.38,5.38,0,0,1-2.46-.6,4.35,4.35,0,0,1-1.8-1.61l.13-.78v8.12h-2.52V92.1H375L375.3,95l-.27-.81a6.37,6.37,0,0,1,2.06-1.7,5.94,5.94,0,0,1,2.8-.67,5.45,5.45,0,0,1,2.84.75,5.38,5.38,0,0,1,2,2.12,6.67,6.67,0,0,1,.73,3.19,6.05,6.05,0,0,1-.79,3.14,5.25,5.25,0,0,1-2.16,2.07A6.57,6.57,0,0,1,379.4,103.79Zm-.49-2a4,4,0,0,0,3.44-1.89,3.7,3.7,0,0,0,.56-2,4,4,0,0,0-.52-2A3.81,3.81,0,0,0,381,94.48a3.77,3.77,0,0,0-1.92-.5,4.16,4.16,0,0,0-1.76.36,3.68,3.68,0,0,0-1.31,1,4,4,0,0,0-.73,1.55v1.9a3.36,3.36,0,0,0,.65,1.5,3.82,3.82,0,0,0,1.29,1.07A3.7,3.7,0,0,0,378.91,101.78Z" transform="translate(0 -5.19)"/><path class="cls-1" d="M387.88,97.78a5.9,5.9,0,0,1,.8-3,5.77,5.77,0,0,1,2.23-2.15,6.64,6.64,0,0,1,3.24-.79,6.42,6.42,0,0,1,3.21.79,5.72,5.72,0,0,1,2.16,2.15,6.39,6.39,0,0,1,0,6.08,5.74,5.74,0,0,1-2.16,2.16,6.27,6.27,0,0,1-3.23.81,6.69,6.69,0,0,1-3.22-.75,5.79,5.79,0,0,1-2.22-2.09A6,6,0,0,1,387.88,97.78Zm2.55,0a4.08,4.08,0,0,0,.49,2,3.84,3.84,0,0,0,1.31,1.4,3.37,3.37,0,0,0,1.84.51,3.49,3.49,0,0,0,1.88-.51,3.78,3.78,0,0,0,1.29-1.4,4.36,4.36,0,0,0,0-3.94A3.81,3.81,0,0,0,396,94.43a3.54,3.54,0,0,0-3.74,0,3.81,3.81,0,0,0-1.3,1.43A4,4,0,0,0,390.43,97.81Z" transform="translate(0 -5.19)"/><path class="cls-1" d="M406,92.27l.24,3.26-.11-.47a5,5,0,0,1,1.25-1.73,6.21,6.21,0,0,1,1.74-1.12,5,5,0,0,1,1.58-.41l-.11,2.56a3.69,3.69,0,0,0-2.27.47,4.42,4.42,0,0,0-1.52,1.52,4,4,0,0,0-.56,2v5.13h-2.53V92.27Z" transform="translate(0 -5.19)"/><path class="cls-1" d="M415,87.32h2.58v5h3.07v2h-3.07v9.21H415V94.3h-2v-2h2Z" transform="translate(0 -5.19)"/><path class="cls-1" d="M428.33,103.79a6.07,6.07,0,0,1-2.86-.68,5.08,5.08,0,0,1-2.06-2,7.16,7.16,0,0,1,0-6.48,5.46,5.46,0,0,1,2.12-2.09,5.94,5.94,0,0,1,2.91-.74,4.75,4.75,0,0,1,2.67.72,4.85,4.85,0,0,1,1.65,1.7l-.17.41.25-2.36h2.34v11.24h-2.53v-2.93l.3.65a3.22,3.22,0,0,1-.52.69,5.92,5.92,0,0,1-1,.86,5.38,5.38,0,0,1-1.37.72A5.31,5.31,0,0,1,428.33,103.79Zm.68-2.1a3.93,3.93,0,0,0,1.71-.35,3.37,3.37,0,0,0,1.27-1,4,4,0,0,0,.69-1.53v-2.2a3.49,3.49,0,0,0-.76-1.42,3.65,3.65,0,0,0-1.31-1A3.9,3.9,0,0,0,429,93.9a3.64,3.64,0,0,0-1.88.49,3.55,3.55,0,0,0-1.34,1.35,4,4,0,0,0-.51,2,3.9,3.9,0,0,0,.52,2,3.94,3.94,0,0,0,1.39,1.42A3.63,3.63,0,0,0,429,101.69Z" transform="translate(0 -5.19)"/><path class="cls-1" d="M440.64,87.32h2.58v5h3.07v2h-3.07v9.21h-2.58V94.3h-2v-2h2Z" transform="translate(0 -5.19)"/><path class="cls-1" d="M454,103.79a6.11,6.11,0,0,1-2.87-.68,5.12,5.12,0,0,1-2.05-2,7.16,7.16,0,0,1,0-6.48,5.39,5.39,0,0,1,2.12-2.09,5.87,5.87,0,0,1,2.9-.74,4.79,4.79,0,0,1,2.68.72,4.9,4.9,0,0,1,1.64,1.7l-.16.41.24-2.36h2.34v11.24h-2.53v-2.93l.3.65a3.47,3.47,0,0,1-.51.69,6.49,6.49,0,0,1-1,.86,5.22,5.22,0,0,1-3.16,1Zm.68-2.1a4,4,0,0,0,1.71-.35,3.34,3.34,0,0,0,1.26-1,3.69,3.69,0,0,0,.69-1.53v-2.2a3.27,3.27,0,0,0-.76-1.42,3.62,3.62,0,0,0-1.3-1,4,4,0,0,0-1.66-.34,3.6,3.6,0,0,0-1.87.49,3.64,3.64,0,0,0-1.35,1.35,4.06,4.06,0,0,0-.5,2,4,4,0,0,0,1.9,3.4A3.66,3.66,0,0,0,454.69,101.69Z" transform="translate(0 -5.19)"/><path class="cls-1" d="M478.4,103.79a5.36,5.36,0,0,1-2.82-.75,5.53,5.53,0,0,1-2-2.12,6.49,6.49,0,0,1-.75-3.17,6.22,6.22,0,0,1,.79-3.2,5.33,5.33,0,0,1,2.12-2,6.32,6.32,0,0,1,3-.71,5.76,5.76,0,0,1,2.54.58A4.52,4.52,0,0,1,483.16,94l-.14.9V82.49h2.53v21H483v-2.79l.3.7a6.24,6.24,0,0,1-2.08,1.7A6,6,0,0,1,478.4,103.79Zm.79-2.15a4,4,0,0,0,1.78-.38,3.87,3.87,0,0,0,1.31-1,3.75,3.75,0,0,0,.74-1.51V96.59a3.36,3.36,0,0,0-.77-1.44,3.87,3.87,0,0,0-1.33-1,4.38,4.38,0,0,0-1.73-.34,3.71,3.71,0,0,0-1.87.49,3.78,3.78,0,0,0-1.39,1.36,3.9,3.9,0,0,0-.51,2,3.94,3.94,0,0,0,.51,2,4,4,0,0,0,1.39,1.41A3.55,3.55,0,0,0,479.19,101.64Z" transform="translate(0 -5.19)"/><path class="cls-1" d="M489.76,88.19a1.25,1.25,0,0,1,.48-1,1.51,1.51,0,0,1,1-.41,1.47,1.47,0,0,1,1,.41,1.32,1.32,0,0,1,0,2,1.54,1.54,0,0,1-1,.39,1.58,1.58,0,0,1-1-.39A1.25,1.25,0,0,1,489.76,88.19Zm.16,4.08h2.56v11.24h-2.56Z" transform="translate(0 -5.19)"/><path class="cls-1" d="M514.56,102.45a5.38,5.38,0,0,1-1.82,1,6.5,6.5,0,0,1-2.11.36,6.8,6.8,0,0,1-3.22-.74,5.31,5.31,0,0,1-2.19-2.06,6,6,0,0,1-.79-3.13,5.68,5.68,0,0,1,.84-3.11,5.79,5.79,0,0,1,2.19-2,6.1,6.1,0,0,1,2.92-.72,7.57,7.57,0,0,1,2.41.37,5.84,5.84,0,0,1,1.86,1L513.37,95a5.57,5.57,0,0,0-1.18-.67,3.92,3.92,0,0,0-1.59-.31,3.49,3.49,0,0,0-1.83.5,3.64,3.64,0,0,0-1.31,1.36,4.1,4.1,0,0,0,0,3.87,3.78,3.78,0,0,0,1.36,1.39,3.9,3.9,0,0,0,2,.51,4.06,4.06,0,0,0,1.32-.21,4.17,4.17,0,0,0,1.1-.6Z" transform="translate(0 -5.19)"/><path class="cls-1" d="M517.8,82.49h2.55v21H517.8Z" transform="translate(0 -5.19)"/><path class="cls-1" d="M524.54,88.19a1.24,1.24,0,0,1,.47-1,1.55,1.55,0,0,1,1-.41,1.48,1.48,0,0,1,1,.41,1.34,1.34,0,0,1,0,2,1.56,1.56,0,0,1-1,.39,1.63,1.63,0,0,1-1-.39A1.24,1.24,0,0,1,524.54,88.19Zm.16,4.08h2.55v11.24H524.7Z" transform="translate(0 -5.19)"/><path class="cls-1" d="M540.76,102.45a5.53,5.53,0,0,1-1.83,1,6.5,6.5,0,0,1-2.11.36,6.8,6.8,0,0,1-3.22-.74,5.31,5.31,0,0,1-2.19-2.06,6,6,0,0,1-.79-3.13,5.68,5.68,0,0,1,.84-3.11,5.79,5.79,0,0,1,2.19-2,6.1,6.1,0,0,1,2.92-.72,7.57,7.57,0,0,1,2.41.37,5.84,5.84,0,0,1,1.86,1L539.56,95a5.57,5.57,0,0,0-1.18-.67,3.92,3.92,0,0,0-1.59-.31,3.49,3.49,0,0,0-1.83.5,3.64,3.64,0,0,0-1.31,1.36,4.18,4.18,0,0,0,0,3.87,3.78,3.78,0,0,0,1.36,1.39,3.9,3.9,0,0,0,2,.51,3.81,3.81,0,0,0,2.42-.81Z" transform="translate(0 -5.19)"/><path class="cls-1" d="M544,103.51v-21h2.55v21Zm1.76-3.58-.24-2.45L552.33,92l1.55,1.33ZM549.29,96l5.13,7.47h-3l-3.89-6Z" transform="translate(0 -5.19)"/></g></g></svg>