<svg xmlns="http://www.w3.org/2000/svg" viewBox="0 0 617.66 112.27"><defs><style>.cls-1{fill:#769293;}.cls-2{fill:#b35360;}</style></defs><g id="Livello_2" data-name="Livello 2"><g id="logo"><path class="cls-1" d="M185.56,16.27h7.93l14.59,40.4,14.59-40.4h7.48V58.91h-7.48V20.83L208.9,58.91H201L187.06,20.38V58.91h-1.5Z" transform="translate(0 -5.19)"/><path class="cls-1" d="M235,46.12V40.28c0-8.9,6.36-13.16,15.34-13.16s15.33,4.26,15.33,13.16v5.84c0,8.9-6.35,13.17-15.33,13.17S235,55,235,46.12Zm23.19,0V40.28c0-6.8-2.32-11.67-7.85-11.67s-7.86,4.87-7.86,11.67v5.84c0,6.81,2.32,11.67,7.86,11.67S258.2,52.93,258.2,46.12Z" transform="translate(0 -5.19)"/><path class="cls-1" d="M270.54,27.49H278V58.91h-7.49Zm25.07-.37-3.44,7.48a22.75,22.75,0,0,0-5.69-.75c-3.37,0-6.73.75-8.45,2.62C280.49,30.93,286.55,27.12,295.61,27.12Z" transform="translate(0 -5.19)"/><path class="cls-1" d="M322.24,49.93c-.6,3.45-3.44,9.36-11.6,9.36C303,59.29,297.1,55,297.1,46.12V40.28c0-8.9,5.69-13.16,13-13.16,7.78,0,12.94,3.36,12.94,10.32,0,8.38-8.23,11.9-14.44,11.9a11.54,11.54,0,0,1-3.81-.53c6.66.08,10.77-4.26,10.77-12.27,0-5.23-1.87-7.93-5.39-7.93s-5.61,3.44-5.61,9.88V45.6a21.54,21.54,0,0,0,.23,3.21c.74,4.94,3.51,7.78,8.15,7.78C317.38,56.59,320.52,53.9,322.24,49.93Z" transform="translate(0 -5.19)"/><path class="cls-1" d="M327.92,27.49h7.48V58.91h-7.48Zm23.64,13.32c0-6.89-2.76-11-7.93-11-4.11,0-6.51,2.69-8.23,6.66a10.49,10.49,0,0,1,10.78-9.35c6.95,0,12.87,4.26,12.87,13.16V58.91h-7.49Z" transform="translate(0 -5.19)"/><path class="cls-1" d="M363.53,50.31c0-11.07,16.16-8.53,20-12.27-.68-5.24-3.37-8.23-7.78-8.23-4.12,0-7.26,2.69-9,6.66.6-3.44,3.44-9.35,11.52-9.35,7,0,12.87,4.26,12.87,13.16V58.91h-7.48V40.81c0-1-.08-1.87-.15-2.7-2.32,4.94-12.27,4.34-12.27,11.75A5.48,5.48,0,0,0,377,55.7,7,7,0,0,0,383.66,51c-.68,5.39-4,8.31-9.21,8.31C368.32,59.29,363.53,55.55,363.53,50.31Z" transform="translate(0 -5.19)"/><path class="cls-1" d="M415.82,16.27h7.93l14.59,40.4,14.59-40.4h7.48V58.91h-7.48V20.83L439.16,58.91h-7.93L417.32,20.38V58.91h-1.5Z" transform="translate(0 -5.19)"/><path class="cls-1" d="M490.56,49.93c-.6,3.45-3.44,9.36-11.6,9.36-7.63,0-13.54-4.27-13.54-13.17V40.28c0-8.9,5.69-13.16,13-13.16,7.78,0,12.94,3.36,12.94,10.32,0,8.38-8.23,11.9-14.44,11.9a11.58,11.58,0,0,1-3.81-.53c6.66.08,10.77-4.26,10.77-12.27,0-5.23-1.87-7.93-5.39-7.93s-5.61,3.44-5.61,9.88V45.6a21.54,21.54,0,0,0,.23,3.21c.75,4.94,3.51,7.78,8.15,7.78C485.7,56.59,488.84,53.9,490.56,49.93Z" transform="translate(0 -5.19)"/><path class="cls-1" d="M496.24,16.27h7.48V58.91h-7.48Z" transform="translate(0 -5.19)"/><path class="cls-1" d="M508.59,16.27h7.48V58.91h-7.48Z" transform="translate(0 -5.19)"/><path class="cls-1" d="M520.56,46.12V40.28c0-8.9,6.35-13.16,15.33-13.16s15.34,4.26,15.34,13.16v5.84c0,8.9-6.36,13.17-15.34,13.17S520.56,55,520.56,46.12Zm23.19,0V40.28c0-6.8-2.32-11.67-7.86-11.67S528,33.48,528,40.28v5.84c0,6.81,2.32,11.67,7.85,11.67S543.75,52.93,543.75,46.12Z" transform="translate(0 -5.19)"/><path class="cls-1" d="M556.09,27.49h7.48V58.91h-7.48Zm23.64,13.32c0-6.89-2.77-11-7.93-11-4.12,0-6.51,2.69-8.23,6.66a10.47,10.47,0,0,1,10.77-9.35c7,0,12.87,4.26,12.87,13.16V58.91h-7.48Z" transform="translate(0 -5.19)"/><path class="cls-1" d="M616.84,49.93c-.6,3.45-3.45,9.36-11.6,9.36-7.63,0-13.54-4.27-13.54-13.17V40.28c0-8.9,5.68-13.16,13-13.16,7.78,0,12.94,3.36,12.94,10.32,0,8.38-8.23,11.9-14.44,11.9a11.64,11.64,0,0,1-3.82-.53c6.66.08,10.78-4.26,10.78-12.27,0-5.23-1.87-7.93-5.39-7.93s-5.61,3.44-5.61,9.88V45.6a21.59,21.59,0,0,0,.22,3.21c.75,4.94,3.52,7.78,8.16,7.78C612,56.59,615.11,53.9,616.84,49.93Z" transform="translate(0 -5.19)"/><g id="Livello_2-2" data-name="Livello 2"><g id="Livello_1-2" data-name="Livello 1-2"><path class="cls-2" d="M157.28,53.4a112.36,112.36,0,0,1-10.12,18.08q-2.83,4.24-5.92,8.33a81.39,81.39,0,0,1-6.51,7.85c-4.74,4.88-10.2,9.29-14.65,14.45a97.7,97.7,0,0,0-6.31,8l-1.5,2.12-.68,1.07-.37.56-.52.68a8.45,8.45,0,0,1-6.38,2.9A8.45,8.45,0,0,1,99,115.59c-.26-.21-.49-.43-.74-.66l-.53-.49q-1.89-1.75-3.7-3.58c-2.44-2.39-4.72-4.88-7-7.44-4.62-5-9.24-10-13.44-15.41s-8.13-10.9-11.92-16.64a161.25,161.25,0,0,1-10.4-17.9l.76-.62A162.84,162.84,0,0,1,67.58,66.49q7.32,7.17,14,14.92c4.47,5.16,8.48,10.66,12.51,16.16,2,2.75,4.07,5.48,6,8.33,1,1.41,1.88,2.86,2.8,4.33l.29.47c0,.09.09.18.14.27a3.05,3.05,0,0,0,.38.49,2.87,2.87,0,0,0,1.14.7,3.25,3.25,0,0,0,2.94-.47l.34-.28.43-.44.89-.92c.59-.64,1.17-1.26,1.73-1.89a98.27,98.27,0,0,0,6.41-8c4-5.53,7-11.83,10.75-17.57a79.56,79.56,0,0,1,6.14-8.14q3.25-3.92,6.78-7.66a112.4,112.4,0,0,1,15.3-13.95Z" transform="translate(0 -5.19)"/><path class="cls-2" d="M105.31,69.82A113.66,113.66,0,0,1,90,55.88q-3.48-3.74-6.77-7.67a81,81,0,0,1-6.15-8.13c-3.73-5.73-6.74-12-10.74-17.56a98.42,98.42,0,0,0-6.41-8c-.55-.64-1.16-1.25-1.73-1.89l-.89-1L57,11.26,56.63,11a3.27,3.27,0,0,0-3-.47,2.87,2.87,0,0,0-1.14.7,5.44,5.44,0,0,0-.47.49,2.59,2.59,0,0,1-.13.28l-.31.47c-.9,1.46-1.82,2.91-2.78,4.33-1.89,2.86-3.94,5.58-6,8.33-4,5.5-8.13,11-12.53,16.16S21.25,51.4,16.27,56.19A164.87,164.87,0,0,1,.75,69.84L0,69.2A160.21,160.21,0,0,1,10.4,51.31C14.12,45.56,18.13,40,22.32,34.66s8.82-10.4,13.48-15.41c2.28-2.52,4.55-5.06,7-7.45,1.21-1.22,2.43-2.41,3.7-3.58L47,7.73a9.05,9.05,0,0,1,.74-.65,8.42,8.42,0,0,1,1.62-1,8.63,8.63,0,0,1,3.73-.85,8.4,8.4,0,0,1,6.36,2.87l.52.68.36.55.7,1.08,1.45,2.11a97.73,97.73,0,0,0,6.3,8C73.27,25.68,78.74,30,83.44,35A78.44,78.44,0,0,1,90,42.81q3.08,4.08,5.92,8.35A113.81,113.81,0,0,1,106,69.22Z" transform="translate(0 -5.19)"/></g></g><path class="cls-1" d="M185.87,79.48H199.5v3H189v7.31h9.25v3H189v9.75h-3.08Z" transform="translate(0 -5.19)"/><path class="cls-1" d="M205.82,89.29l.29,3.81-.13-.54a5.89,5.89,0,0,1,1.46-2,7,7,0,0,1,2-1.3,5.56,5.56,0,0,1,1.85-.48l-.13,3a4.29,4.29,0,0,0-2.65.55,5.06,5.06,0,0,0-1.78,1.78,4.5,4.5,0,0,0-.65,2.37v6h-3V89.29Z" transform="translate(0 -5.19)"/><path class="cls-1" d="M213.38,95.74a6.84,6.84,0,0,1,.94-3.56,6.75,6.75,0,0,1,2.6-2.51,7.77,7.77,0,0,1,3.8-.92,7.5,7.5,0,0,1,3.75.92A6.6,6.6,0,0,1,227,92.18a7.42,7.42,0,0,1,0,7.12,6.63,6.63,0,0,1-2.52,2.52,7.36,7.36,0,0,1-3.78.94,7.91,7.91,0,0,1-3.77-.87,6.71,6.71,0,0,1-2.59-2.45A7,7,0,0,1,213.38,95.74Zm3,0a4.64,4.64,0,0,0,.57,2.3,4.45,4.45,0,0,0,1.52,1.64,4.24,4.24,0,0,0,4.35,0,4.27,4.27,0,0,0,1.51-1.64,5,5,0,0,0,0-4.6,4.37,4.37,0,0,0-1.51-1.65,4.11,4.11,0,0,0-4.36,0,4.55,4.55,0,0,0-1.53,1.67A4.73,4.73,0,0,0,216.37,95.77Z" transform="translate(0 -5.19)"/><path class="cls-1" d="M234.54,89.29l.22,3.21-.1-.51a4.89,4.89,0,0,1,2-2.33,6.18,6.18,0,0,1,3.33-.88,4.33,4.33,0,0,1,3,1.1,3.79,3.79,0,0,1,1.22,2.84v9.72h-3v-8.7a2.62,2.62,0,0,0-.62-1.73,2.26,2.26,0,0,0-1.82-.69,3.6,3.6,0,0,0-2.05.64,4.2,4.2,0,0,0-1.46,1.75,6,6,0,0,0-.53,2.57v6.16h-3V89.29Z" transform="translate(0 -5.19)"/><path class="cls-1" d="M250.67,83.51h3v5.84h3.59v2.32h-3.59v10.77h-3V91.67h-2.38V89.35h2.38Z" transform="translate(0 -5.19)"/><path class="cls-1" d="M271.61,79.48h14.93v3H274.69v7h10.58v3H274.69v7.09H287v3H271.61Z" transform="translate(0 -5.19)"/><path class="cls-1" d="M294.26,89.29l.22,3.21-.1-.51a4.89,4.89,0,0,1,2-2.33,6.18,6.18,0,0,1,3.33-.88,4.33,4.33,0,0,1,3,1.1A3.79,3.79,0,0,1,304,92.72v9.72h-3v-8.7A2.68,2.68,0,0,0,300.4,92a2.26,2.26,0,0,0-1.82-.69,3.58,3.58,0,0,0-2.05.64,4.2,4.2,0,0,0-1.46,1.75,6,6,0,0,0-.53,2.57v6.16h-3V89.29Z" transform="translate(0 -5.19)"/><path class="cls-1" d="M314.49,102.76a6.21,6.21,0,0,1-5.64-3.35,7.63,7.63,0,0,1-.87-3.7A7.29,7.29,0,0,1,308.9,92a6.17,6.17,0,0,1,2.48-2.38,7.31,7.31,0,0,1,3.49-.83,6.79,6.79,0,0,1,3,.67,5.36,5.36,0,0,1,2.21,1.84l-.16,1V77.86h3v24.58h-3V99.17l.35.83a7.66,7.66,0,0,1-2.43,2A7,7,0,0,1,314.49,102.76Zm.92-2.51a4.72,4.72,0,0,0,2.08-.44,4.64,4.64,0,0,0,1.53-1.2,4.35,4.35,0,0,0,.87-1.76V94.34a4.16,4.16,0,0,0-.9-1.68,4.6,4.6,0,0,0-1.56-1.13,5.06,5.06,0,0,0-2-.4,4.45,4.45,0,0,0-3.81,2.16,4.67,4.67,0,0,0,1.62,6.34A4.17,4.17,0,0,0,315.41,100.25Z" transform="translate(0 -5.19)"/><path class="cls-1" d="M338.76,102.44v-23H345a14.59,14.59,0,0,1,5.81,1,10.42,10.42,0,0,1,3.86,2.76,10.91,10.91,0,0,1,2.14,3.8,13.26,13.26,0,0,1,.67,4.16,11.58,11.58,0,0,1-.9,4.67,10.48,10.48,0,0,1-2.48,3.52,10.84,10.84,0,0,1-3.62,2.24,12.1,12.1,0,0,1-4.34.78Zm3.08-3h3.72a10.33,10.33,0,0,0,3.48-.57,8.24,8.24,0,0,0,2.79-1.66,7.3,7.3,0,0,0,1.86-2.65,10.07,10.07,0,0,0,0-7.3,7.65,7.65,0,0,0-1.91-2.69A8.23,8.23,0,0,0,349,83a9.26,9.26,0,0,0-3.18-.56h-4Z" transform="translate(0 -5.19)"/><path class="cls-1" d="M368.05,102.76a7.76,7.76,0,0,1-3.88-.91,6.41,6.41,0,0,1-2.51-2.47,7.24,7.24,0,0,1-.89-3.61,6.5,6.5,0,0,1,1-3.52,7.56,7.56,0,0,1,2.66-2.55,7.28,7.28,0,0,1,3.68-1,6.24,6.24,0,0,1,4.32,1.53,7.83,7.83,0,0,1,2.35,4.19l-10.86,3.81-.7-1.75,8.86-3.27-.6.45a4.3,4.3,0,0,0-1.27-1.81,3.45,3.45,0,0,0-2.32-.77,4,4,0,0,0-2.15.58,4,4,0,0,0-1.47,1.57,4.8,4.8,0,0,0-.54,2.33,5,5,0,0,0,.55,2.39,4.08,4.08,0,0,0,1.56,1.63,4.41,4.41,0,0,0,2.27.59,4.59,4.59,0,0,0,1.67-.32,7.86,7.86,0,0,0,1.54-.82l1.33,2.19a9.39,9.39,0,0,1-2.2,1.08A7.66,7.66,0,0,1,368.05,102.76Z" transform="translate(0 -5.19)"/><path class="cls-1" d="M383.36,102.82l-7.31-13.53h3.53l4.92,10.45-1.81-.09,4.54-10.36h3.31l-7,13.53Z" transform="translate(0 -5.19)"/><path class="cls-1" d="M399.5,102.76a7.76,7.76,0,0,1-3.88-.91,6.35,6.35,0,0,1-2.51-2.47,7.24,7.24,0,0,1-.89-3.61,6.5,6.5,0,0,1,1-3.52,7.62,7.62,0,0,1,2.65-2.55,7.32,7.32,0,0,1,3.69-1,6.24,6.24,0,0,1,4.32,1.53,7.83,7.83,0,0,1,2.35,4.19l-10.86,3.81-.7-1.75,8.86-3.27-.6.45a4.3,4.3,0,0,0-1.27-1.81,3.45,3.45,0,0,0-2.32-.77,4,4,0,0,0-2.15.58,4,4,0,0,0-1.47,1.57,4.69,4.69,0,0,0-.54,2.33,5,5,0,0,0,.55,2.39,4.08,4.08,0,0,0,1.56,1.63,4.39,4.39,0,0,0,2.27.59,4.59,4.59,0,0,0,1.67-.32,7.86,7.86,0,0,0,1.54-.82l1.33,2.19a9.46,9.46,0,0,1-2.21,1.08A7.55,7.55,0,0,1,399.5,102.76Z" transform="translate(0 -5.19)"/><path class="cls-1" d="M409.88,77.86h3v24.58h-3Z" transform="translate(0 -5.19)"/><path class="cls-1" d="M416.81,95.74a6.84,6.84,0,0,1,.94-3.56,6.75,6.75,0,0,1,2.6-2.51,7.77,7.77,0,0,1,3.8-.92,7.48,7.48,0,0,1,3.74.92,6.63,6.63,0,0,1,2.53,2.51,7.42,7.42,0,0,1,0,7.12,6.66,6.66,0,0,1-2.53,2.52,7.36,7.36,0,0,1-3.78.94,7.87,7.87,0,0,1-3.76-.87,6.71,6.71,0,0,1-2.59-2.45A7,7,0,0,1,416.81,95.74Zm3,0a4.64,4.64,0,0,0,.57,2.3,4.56,4.56,0,0,0,1.53,1.64,4.24,4.24,0,0,0,4.35,0,4.27,4.27,0,0,0,1.51-1.64,5,5,0,0,0,0-4.6,4.37,4.37,0,0,0-1.51-1.65,3.85,3.85,0,0,0-2.19-.62,3.94,3.94,0,0,0-2.18.63,4.61,4.61,0,0,0-1.52,1.67A4.74,4.74,0,0,0,419.79,95.77Z" transform="translate(0 -5.19)"/><path class="cls-1" d="M443.05,102.76a6.25,6.25,0,0,1-2.88-.7,5.14,5.14,0,0,1-2.11-1.87l.16-.92v9.49h-3V89.1h2.58l.41,3.37-.32-1a7.62,7.62,0,0,1,2.42-2,6.81,6.81,0,0,1,3.27-.78,6.43,6.43,0,0,1,3.32.87,6.27,6.27,0,0,1,2.33,2.48,7.72,7.72,0,0,1,.86,3.73,7.14,7.14,0,0,1-.92,3.67,6.21,6.21,0,0,1-2.53,2.42A7.71,7.71,0,0,1,443.05,102.76Zm-.57-2.35a4.68,4.68,0,0,0,4-2.21,4.22,4.22,0,0,0,.65-2.33,4.64,4.64,0,0,0-.6-2.37,4.44,4.44,0,0,0-1.6-1.62,4.38,4.38,0,0,0-2.24-.59,4.94,4.94,0,0,0-2.07.43,4.16,4.16,0,0,0-1.52,1.19,4.68,4.68,0,0,0-.86,1.81V97a3.94,3.94,0,0,0,.76,1.74,4.4,4.4,0,0,0,1.51,1.26A4.25,4.25,0,0,0,442.48,100.41Z" transform="translate(0 -5.19)"/><path class="cls-1" d="M460.23,102.76a7.75,7.75,0,0,1-3.87-.91,6.35,6.35,0,0,1-2.51-2.47,7.13,7.13,0,0,1-.89-3.61,6.42,6.42,0,0,1,1-3.52,7.62,7.62,0,0,1,2.65-2.55,7.29,7.29,0,0,1,3.69-1,6.27,6.27,0,0,1,4.32,1.53A7.89,7.89,0,0,1,467,94.47L456.1,98.28l-.7-1.75,8.87-3.27-.61.45a4.22,4.22,0,0,0-1.27-1.81,3.42,3.42,0,0,0-2.32-.77,4,4,0,0,0-2.14.58,4,4,0,0,0-1.48,1.57,4.8,4.8,0,0,0-.54,2.33,5,5,0,0,0,.56,2.39A4.12,4.12,0,0,0,458,99.63a4.45,4.45,0,0,0,2.28.59A4.54,4.54,0,0,0,462,99.9a7.59,7.59,0,0,0,1.54-.82l1.34,2.19a9.46,9.46,0,0,1-2.21,1.08A7.61,7.61,0,0,1,460.23,102.76Z" transform="translate(0 -5.19)"/><path class="cls-1" d="M473.29,89.29l.28,3.81-.12-.54a5.64,5.64,0,0,1,1.46-2,6.86,6.86,0,0,1,2-1.3,5.51,5.51,0,0,1,1.84-.48l-.12,3a4.32,4.32,0,0,0-2.66.55,5.23,5.23,0,0,0-1.78,1.78,4.59,4.59,0,0,0-.65,2.37v6h-2.95V89.29Z" transform="translate(0 -5.19)"/></g></g></svg>