<svg xmlns="http://www.w3.org/2000/svg" viewBox="0 0 432.1 197.36"><defs><style>.cls-1{fill:#769293;}.cls-2{fill:#b35360;}</style></defs><g id="Livello_2" data-name="Livello 2"><g id="logo"><path class="cls-1" d="M3,108.09h7.93l14.59,40.4,14.59-40.4h7.48v42.64H40.1V112.65L26.33,150.73H18.4L4.49,112.2v38.53H3Z" transform="translate(-2.99)"/><path class="cls-1" d="M52.44,137.94V132.1c0-8.9,6.36-13.17,15.34-13.17s15.34,4.27,15.34,13.17v5.84c0,8.9-6.36,13.16-15.34,13.16S52.44,146.84,52.44,137.94Zm23.19,0V132.1c0-6.81-2.31-11.67-7.85-11.67s-7.86,4.86-7.86,11.67v5.84c0,6.8,2.32,11.67,7.86,11.67S75.63,144.74,75.63,137.94Z" transform="translate(-2.99)"/><path class="cls-1" d="M88,119.31h7.48v31.42H88Zm25.06-.38-3.44,7.49a22.69,22.69,0,0,0-5.69-.75c-3.37,0-6.73.75-8.45,2.62C97.93,122.75,104,118.93,113,118.93Z" transform="translate(-2.99)"/><path class="cls-1" d="M139.67,141.75c-.6,3.44-3.44,9.35-11.6,9.35-7.63,0-13.54-4.26-13.54-13.16V132.1c0-8.9,5.69-13.17,13-13.17,7.78,0,12.94,3.37,12.94,10.33,0,8.38-8.23,11.89-14.44,11.89a11.86,11.86,0,0,1-3.81-.52c6.66.07,10.77-4.26,10.77-12.27,0-5.24-1.87-7.93-5.38-7.93s-5.62,3.44-5.62,9.88v7.1a21.68,21.68,0,0,0,.23,3.22c.75,4.94,3.51,7.78,8.15,7.78C134.81,148.41,138,145.72,139.67,141.75Z" transform="translate(-2.99)"/><path class="cls-1" d="M145.35,119.31h7.49v31.42h-7.49ZM169,132.62c0-6.88-2.77-11-7.93-11-4.12,0-6.51,2.69-8.23,6.66a10.47,10.47,0,0,1,10.77-9.36c7,0,12.87,4.27,12.87,13.17v18.63H169Z" transform="translate(-2.99)"/><path class="cls-1" d="M181,142.13c0-11.08,16.16-8.53,20-12.27-.67-5.24-3.37-8.23-7.78-8.23-4.12,0-7.26,2.69-9,6.66.6-3.45,3.44-9.36,11.52-9.36,7,0,12.87,4.27,12.87,13.17v18.63h-7.48V132.62c0-1-.08-1.87-.15-2.69-2.32,4.94-12.27,4.34-12.27,11.75a5.47,5.47,0,0,0,5.76,5.83,7,7,0,0,0,6.66-4.71c-.67,5.39-4,8.3-9.2,8.3C185.75,151.1,181,147.36,181,142.13Z" transform="translate(-2.99)"/><path class="cls-1" d="M233.25,108.09h7.93l14.59,40.4,14.59-40.4h7.48v42.64h-7.48V112.65L256.6,150.73h-7.93L234.75,112.2v38.53h-1.5Z" transform="translate(-2.99)"/><path class="cls-1" d="M308,141.75c-.6,3.44-3.44,9.35-11.59,9.35-7.64,0-13.55-4.26-13.55-13.16V132.1c0-8.9,5.69-13.17,13-13.17,7.78,0,12.94,3.37,12.94,10.33,0,8.38-8.23,11.89-14.43,11.89a11.89,11.89,0,0,1-3.82-.52c6.66.07,10.77-4.26,10.77-12.27,0-5.24-1.87-7.93-5.38-7.93s-5.62,3.44-5.62,9.88v7.1a21.68,21.68,0,0,0,.23,3.22c.75,4.94,3.52,7.78,8.15,7.78C303.13,148.41,306.27,145.72,308,141.75Z" transform="translate(-2.99)"/><path class="cls-1" d="M313.67,108.09h7.49v42.64h-7.49Z" transform="translate(-2.99)"/><path class="cls-1" d="M326,108.09h7.48v42.64H326Z" transform="translate(-2.99)"/><path class="cls-1" d="M338,137.94V132.1c0-8.9,6.36-13.17,15.33-13.17s15.34,4.27,15.34,13.17v5.84c0,8.9-6.36,13.16-15.34,13.16S338,146.84,338,137.94Zm23.19,0V132.1c0-6.81-2.32-11.67-7.86-11.67s-7.85,4.86-7.85,11.67v5.84c0,6.8,2.32,11.67,7.85,11.67S361.18,144.74,361.18,137.94Z" transform="translate(-2.99)"/><path class="cls-1" d="M373.52,119.31H381v31.42h-7.48Zm23.64,13.31c0-6.88-2.77-11-7.93-11-4.11,0-6.51,2.69-8.23,6.66a10.49,10.49,0,0,1,10.78-9.36c7,0,12.86,4.27,12.86,13.17v18.63h-7.48Z" transform="translate(-2.99)"/><path class="cls-1" d="M434.27,141.75c-.6,3.44-3.44,9.35-11.6,9.35-7.63,0-13.54-4.26-13.54-13.16V132.1c0-8.9,5.69-13.17,13-13.17,7.78,0,12.94,3.37,12.94,10.33,0,8.38-8.23,11.89-14.44,11.89a11.82,11.82,0,0,1-3.81-.52c6.65.07,10.77-4.26,10.77-12.27,0-5.24-1.87-7.93-5.39-7.93s-5.61,3.44-5.61,9.88v7.1a21.68,21.68,0,0,0,.23,3.22c.74,4.94,3.51,7.78,8.15,7.78C429.4,148.41,432.55,145.72,434.27,141.75Z" transform="translate(-2.99)"/><g id="Livello_2-2" data-name="Livello 2"><g id="Livello_1-2" data-name="Livello 1-2"><path class="cls-2" d="M280.42,37a87.12,87.12,0,0,1-7.76,13.86c-1.45,2.18-3,4.3-4.55,6.39a61,61,0,0,1-5,6c-3.63,3.74-7.82,7.12-11.23,11.08a75.77,75.77,0,0,0-4.84,6.16L245.9,82.1l-.52.83-.29.42-.4.53a6.48,6.48,0,0,1-4.89,2.22,6.74,6.74,0,0,1-2.83-.65,7.11,7.11,0,0,1-1.25-.79c-.2-.16-.37-.34-.56-.51l-.41-.37c-1-.9-1.91-1.81-2.83-2.75-1.87-1.83-3.62-3.74-5.39-5.7-3.55-3.86-7.09-7.7-10.31-11.82s-6.24-8.36-9.15-12.76a125.09,125.09,0,0,1-8-13.73l.59-.47A126.13,126.13,0,0,1,211.63,47q5.61,5.51,10.77,11.45c3.43,3.95,6.5,8.17,9.59,12.39,1.55,2.1,3.12,4.2,4.57,6.38.73,1.09,1.45,2.2,2.14,3.32l.23.37a2.12,2.12,0,0,0,.11.21,2.63,2.63,0,0,0,.29.37,2.13,2.13,0,0,0,.87.54,2.5,2.5,0,0,0,2.26-.36l.26-.22.33-.33.68-.71c.45-.49.9-1,1.33-1.45a75.7,75.7,0,0,0,4.91-6.1c3.07-4.24,5.38-9.07,8.25-13.48a60.61,60.61,0,0,1,4.7-6.24c1.67-2,3.4-4,5.21-5.87a86.21,86.21,0,0,1,11.73-10.7Z" transform="translate(-2.99)"/><path class="cls-2" d="M240.56,49.56a87.48,87.48,0,0,1-11.74-10.69Q226.15,36,223.63,33a62.27,62.27,0,0,1-4.72-6.24c-2.85-4.39-5.16-9.23-8.23-13.46a75.7,75.7,0,0,0-4.92-6.12c-.42-.48-.88-1-1.32-1.44L203.75,5l-.27-.34-.25-.21A2.5,2.5,0,0,0,201,4.08a2.13,2.13,0,0,0-.87.54,3.15,3.15,0,0,0-.36.37l-.1.21-.24.37c-.69,1.12-1.4,2.23-2.13,3.31-1.45,2.2-3,4.28-4.57,6.39-3.1,4.22-6.24,8.44-9.61,12.39s-7,7.78-10.8,11.45a127.13,127.13,0,0,1-11.91,10.46l-.57-.48a123.5,123.5,0,0,1,8-13.73c2.86-4.4,5.93-8.65,9.15-12.76s6.76-8,10.33-11.82c1.75-1.93,3.49-3.88,5.36-5.71.93-.94,1.86-1.85,2.84-2.75l.41-.37a5.27,5.27,0,0,1,.56-.5,6.81,6.81,0,0,1,1.25-.8A6.58,6.58,0,0,1,200.54,0a6.42,6.42,0,0,1,4.87,2.2l.4.52.28.42.53.83,1.11,1.62a76.13,76.13,0,0,0,4.83,6.16c3.44,4,7.63,7.3,11.23,11.1a59.67,59.67,0,0,1,5,6c1.58,2.08,3.1,4.22,4.55,6.4a87.46,87.46,0,0,1,7.76,13.85Z" transform="translate(-2.99)"/></g></g><path class="cls-1" d="M30.53,172.31H43.6v2.52H38.33V192H35.69V174.83H30.53Z" transform="translate(-2.99)"/><path class="cls-1" d="M47.78,180.7,48,184l-.11-.46a5,5,0,0,1,1.25-1.74,5.83,5.83,0,0,1,1.74-1.11,4.68,4.68,0,0,1,1.57-.41l-.1,2.55a3.69,3.69,0,0,0-2.27.48,4.45,4.45,0,0,0-1.53,1.52,3.91,3.91,0,0,0-.55,2V192H45.5V180.7Z" transform="translate(-2.99)"/><path class="cls-1" d="M60.15,192.22a6.08,6.08,0,0,1-2.87-.68,5,5,0,0,1-2.05-2,6.34,6.34,0,0,1-.76-3.22,6.42,6.42,0,0,1,.78-3.26,5.55,5.55,0,0,1,2.12-2.1,5.93,5.93,0,0,1,2.91-.73A4.81,4.81,0,0,1,63,181a4.9,4.9,0,0,1,1.64,1.7l-.16.41.24-2.37H67V192H64.49V189l.3.65a3.22,3.22,0,0,1-.52.69,6.43,6.43,0,0,1-1,.86,5.38,5.38,0,0,1-1.37.72A5.3,5.3,0,0,1,60.15,192.22Zm.67-2.09a4.13,4.13,0,0,0,1.72-.35,3.44,3.44,0,0,0,1.26-1,3.71,3.71,0,0,0,.69-1.52v-2.2a3.47,3.47,0,0,0-.76-1.43,3.83,3.83,0,0,0-1.3-1,4,4,0,0,0-1.66-.34,3.6,3.6,0,0,0-1.87.49,3.67,3.67,0,0,0-1.35,1.36,4.06,4.06,0,0,0-.5,2,4,4,0,0,0,.51,2A3.84,3.84,0,0,0,59,189.61,3.54,3.54,0,0,0,60.82,190.13Z" transform="translate(-2.99)"/><path class="cls-1" d="M74.54,192.17a6.61,6.61,0,0,1-2.32-.42,4.54,4.54,0,0,1-1.86-1.27L71.42,189a5.61,5.61,0,0,0,1.47,1,3.38,3.38,0,0,0,1.46.34,3.58,3.58,0,0,0,1-.13,1.59,1.59,0,0,0,.75-.46,1.25,1.25,0,0,0,.28-.85,1.21,1.21,0,0,0-.39-1,3.37,3.37,0,0,0-1-.56c-.4-.14-.84-.28-1.31-.41a4.82,4.82,0,0,1-2.12-1.27,2.88,2.88,0,0,1-.73-2,3.3,3.3,0,0,1,.45-1.67,3.43,3.43,0,0,1,1.34-1.27,4.34,4.34,0,0,1,2.18-.51,7.13,7.13,0,0,1,2.09.29,5.17,5.17,0,0,1,1.74,1l-1,1.58a3.11,3.11,0,0,0-1.15-.77,3.26,3.26,0,0,0-1.21-.26,2.67,2.67,0,0,0-.91.15,1.62,1.62,0,0,0-.68.43,1.22,1.22,0,0,0,.11,1.63,3.13,3.13,0,0,0,1,.56l1.22.43a6.55,6.55,0,0,1,1.47.65,3.46,3.46,0,0,1,1,1,2.61,2.61,0,0,1,.4,1.49,3.77,3.77,0,0,1-.48,1.87A3.26,3.26,0,0,1,77,191.66,5.22,5.22,0,0,1,74.54,192.17Z" transform="translate(-2.99)"/><path class="cls-1" d="M89.08,192.22a5.38,5.38,0,0,1-2.46-.6,4.36,4.36,0,0,1-1.81-1.6l.14-.79v8.13H82.42V180.54h2.2l.36,2.88-.27-.82a6.47,6.47,0,0,1,2.06-1.69,5.79,5.79,0,0,1,2.8-.67,5.45,5.45,0,0,1,2.84.75,5.23,5.23,0,0,1,2,2.12,6.65,6.65,0,0,1,.74,3.19,6.08,6.08,0,0,1-.79,3.14,5.42,5.42,0,0,1-2.16,2.06A6.57,6.57,0,0,1,89.08,192.22Zm-.49-2A4,4,0,0,0,92,188.32a3.66,3.66,0,0,0,.55-2,4,4,0,0,0-.51-2,3.78,3.78,0,0,0-1.37-1.38,3.68,3.68,0,0,0-1.92-.51,4.25,4.25,0,0,0-1.77.37,3.44,3.44,0,0,0-1.3,1,3.91,3.91,0,0,0-.73,1.55v1.9a3.26,3.26,0,0,0,.65,1.49,3.67,3.67,0,0,0,3,1.47Z" transform="translate(-2.99)"/><path class="cls-1" d="M97.56,186.22a5.84,5.84,0,0,1,.8-3.05,5.71,5.71,0,0,1,2.22-2.14,6.6,6.6,0,0,1,3.25-.79A6.37,6.37,0,0,1,107,181a5.69,5.69,0,0,1,2.16,2.14,6.41,6.41,0,0,1,0,6.09,5.74,5.74,0,0,1-2.16,2.16,6.41,6.41,0,0,1-3.24.8,6.74,6.74,0,0,1-3.22-.75,5.56,5.56,0,0,1-2.21-2.09A6,6,0,0,1,97.56,186.22Zm2.55,0a3.92,3.92,0,0,0,.49,2,3.73,3.73,0,0,0,1.3,1.4,3.59,3.59,0,0,0,3.72,0,3.66,3.66,0,0,0,1.3-1.4,4.13,4.13,0,0,0,.47-2,4.18,4.18,0,0,0-.47-2,3.83,3.83,0,0,0-1.3-1.41,3.36,3.36,0,0,0-1.87-.53,3.25,3.25,0,0,0-1.86.55,3.89,3.89,0,0,0-1.31,1.42A4.12,4.12,0,0,0,100.11,186.24Z" transform="translate(-2.99)"/><path class="cls-1" d="M115.62,180.7l.25,3.26-.11-.46a4.9,4.9,0,0,1,1.25-1.74,5.83,5.83,0,0,1,1.74-1.11,4.68,4.68,0,0,1,1.57-.41l-.11,2.55a3.66,3.66,0,0,0-2.26.48,4.37,4.37,0,0,0-1.53,1.52,3.91,3.91,0,0,0-.55,2V192h-2.53V180.7Z" transform="translate(-2.99)"/><path class="cls-1" d="M124.64,175.76h2.58v5h3.07v2h-3.07V192h-2.58v-9.21h-2v-2h2Z" transform="translate(-2.99)"/><path class="cls-1" d="M132.33,186.22a5.93,5.93,0,0,1,.8-3.05,5.81,5.81,0,0,1,2.23-2.14,6.55,6.55,0,0,1,3.25-.79,6.3,6.3,0,0,1,3.2.79,5.55,5.55,0,0,1,2.16,2.14,6.33,6.33,0,0,1,0,6.09,5.6,5.6,0,0,1-2.16,2.16,6.37,6.37,0,0,1-3.23.8,6.71,6.71,0,0,1-3.22-.75,5.56,5.56,0,0,1-2.21-2.09A5.9,5.9,0,0,1,132.33,186.22Zm2.56,0a4,4,0,0,0,.48,2,3.76,3.76,0,0,0,1.31,1.4,3.33,3.33,0,0,0,1.85.52,3.37,3.37,0,0,0,1.87-.52,3.71,3.71,0,0,0,1.29-1.4,4,4,0,0,0,.48-2,4.07,4.07,0,0,0-.48-2,3.89,3.89,0,0,0-1.29-1.41,3.38,3.38,0,0,0-1.87-.53,3.31,3.31,0,0,0-1.87.55,3.86,3.86,0,0,0-1.3,1.42A4,4,0,0,0,134.89,186.24Z" transform="translate(-2.99)"/><path class="cls-1" d="M156.54,176.63a1.29,1.29,0,0,1,.47-1,1.6,1.6,0,0,1,1.05-.41,1.53,1.53,0,0,1,1,.41,1.35,1.35,0,0,1,0,2,1.56,1.56,0,0,1-1,.39,1.63,1.63,0,0,1-1.05-.39A1.3,1.3,0,0,1,156.54,176.63Zm.16,4.07h2.56V192H156.7Z" transform="translate(-2.99)"/><path class="cls-1" d="M163.6,170.92h2.56v21H163.6Z" transform="translate(-2.99)"/><path class="cls-1" d="M180.17,175.76h2.59v5h3.07v2h-3.07V192h-2.59v-9.21h-2v-2h2Z" transform="translate(-2.99)"/><path class="cls-1" d="M192.46,192.38a3.59,3.59,0,0,1-2.57-.93,3.41,3.41,0,0,1-1-2.43V180.7h2.56v7.42a2.4,2.4,0,0,0,.54,1.48,1.93,1.93,0,0,0,1.52.61,2.67,2.67,0,0,0,1.67-.56,4,4,0,0,0,1.21-1.52,5,5,0,0,0,.46-2.19V180.7h2.53V192H197l-.22-2.77.16.51a4.43,4.43,0,0,1-1,1.38,4.82,4.82,0,0,1-1.56,1A5.26,5.26,0,0,1,192.46,192.38Z" transform="translate(-2.99)"/><path class="cls-1" d="M202.7,186.22a5.84,5.84,0,0,1,.8-3.05,5.74,5.74,0,0,1,2.23-2.14,6.53,6.53,0,0,1,3.24-.79,6.31,6.31,0,0,1,3.21.79,5.69,5.69,0,0,1,2.16,2.14,6.41,6.41,0,0,1,0,6.09,5.74,5.74,0,0,1-2.16,2.16,6.37,6.37,0,0,1-3.23.8,6.69,6.69,0,0,1-3.22-.75,5.58,5.58,0,0,1-2.22-2.09A6,6,0,0,1,202.7,186.22Zm2.55,0a3.92,3.92,0,0,0,.49,2,3.81,3.81,0,0,0,1.3,1.4,3.35,3.35,0,0,0,1.85.52,3.41,3.41,0,0,0,1.88-.52,3.71,3.71,0,0,0,1.29-1.4,4.13,4.13,0,0,0,.47-2,4.18,4.18,0,0,0-.47-2,3.89,3.89,0,0,0-1.29-1.41,3.41,3.41,0,0,0-1.88-.53,3.25,3.25,0,0,0-1.86.55,3.78,3.78,0,0,0-1.3,1.42A4,4,0,0,0,205.25,186.24Z" transform="translate(-2.99)"/><path class="cls-1" d="M229.38,180.7l.21,2.53-.13-.22a4.91,4.91,0,0,1,1.78-2,4.79,4.79,0,0,1,2.67-.75,4.16,4.16,0,0,1,1.66.31,3.27,3.27,0,0,1,1.21.87,2.71,2.71,0,0,1,.61,1.35l-.14.11a4.81,4.81,0,0,1,1.81-1.95,4.67,4.67,0,0,1,2.43-.69,3.61,3.61,0,0,1,2.63.95,3.41,3.41,0,0,1,1,2.42V192h-2.55v-7.42a2.73,2.73,0,0,0-.42-1.45,1.59,1.59,0,0,0-1.37-.61,2.79,2.79,0,0,0-1.75.58,3.84,3.84,0,0,0-1.2,1.52,5.34,5.34,0,0,0-.45,2.05V192h-2.55v-7.42a2.57,2.57,0,0,0-.45-1.45,1.67,1.67,0,0,0-1.4-.61,2.78,2.78,0,0,0-1.74.58,3.83,3.83,0,0,0-1.19,1.54,4.88,4.88,0,0,0-.44,2.06V192h-2.55V180.7Z" transform="translate(-2.99)"/><path class="cls-1" d="M248.5,186.22a5.93,5.93,0,0,1,.8-3.05,5.81,5.81,0,0,1,2.23-2.14,6.57,6.57,0,0,1,3.25-.79A6.37,6.37,0,0,1,258,181a5.6,5.6,0,0,1,2.15,2.14,6.33,6.33,0,0,1,0,6.09,5.65,5.65,0,0,1-2.15,2.16,6.43,6.43,0,0,1-3.24.8,6.71,6.71,0,0,1-3.22-.75,5.56,5.56,0,0,1-2.21-2.09A5.9,5.9,0,0,1,248.5,186.22Zm2.56,0a3.92,3.92,0,0,0,.49,2,3.73,3.73,0,0,0,1.3,1.4,3.33,3.33,0,0,0,1.85.52,3.37,3.37,0,0,0,1.87-.52,3.56,3.56,0,0,0,1.29-1.4,4,4,0,0,0,.48-2,4.07,4.07,0,0,0-.48-2,3.73,3.73,0,0,0-1.29-1.41,3.38,3.38,0,0,0-1.87-.53,3.25,3.25,0,0,0-1.86.55,3.81,3.81,0,0,0-1.31,1.42A4,4,0,0,0,251.06,186.24Z" transform="translate(-2.99)"/><path class="cls-1" d="M266.6,180.7l.19,2.75-.08-.44a4.19,4.19,0,0,1,1.73-2,5.46,5.46,0,0,1,2.86-.74,3.69,3.69,0,0,1,2.59.93,3.27,3.27,0,0,1,1.05,2.44V192h-2.56v-7.44a2.25,2.25,0,0,0-.53-1.49,2,2,0,0,0-1.56-.58,3.06,3.06,0,0,0-1.75.54,3.62,3.62,0,0,0-1.25,1.5,5.09,5.09,0,0,0-.45,2.2V192h-2.55V180.7Z" transform="translate(-2.99)"/><path class="cls-1" d="M283.9,192.22a5.33,5.33,0,0,1-4.82-2.87,6.47,6.47,0,0,1-.75-3.16,6.26,6.26,0,0,1,.79-3.21,5.37,5.37,0,0,1,2.12-2,6.29,6.29,0,0,1,3-.71,5.89,5.89,0,0,1,2.54.57,4.54,4.54,0,0,1,1.89,1.58l-.14.89V170.92h2.53v21h-2.53v-2.8l.3.71a6.47,6.47,0,0,1-2.08,1.7A6,6,0,0,1,283.9,192.22Zm.79-2.15a3.89,3.89,0,0,0,1.78-.38,4,4,0,0,0,1.31-1,3.75,3.75,0,0,0,.74-1.51V185a3.48,3.48,0,0,0-.77-1.44,3.84,3.84,0,0,0-1.33-1,4.21,4.21,0,0,0-1.73-.34,3.71,3.71,0,0,0-1.87.49,3.75,3.75,0,0,0-1.39,1.35,4.2,4.2,0,0,0,0,4,4.11,4.11,0,0,0,1.39,1.42A3.54,3.54,0,0,0,284.69,190.07Z" transform="translate(-2.99)"/><path class="cls-1" d="M294.44,186.22a5.85,5.85,0,0,1,.81-3.05,5.71,5.71,0,0,1,2.22-2.14,6.57,6.57,0,0,1,3.25-.79,6.37,6.37,0,0,1,3.21.79,5.69,5.69,0,0,1,2.16,2.14,6.41,6.41,0,0,1,0,6.09,5.74,5.74,0,0,1-2.16,2.16,6.43,6.43,0,0,1-3.24.8,6.74,6.74,0,0,1-3.22-.75,5.56,5.56,0,0,1-2.21-2.09A6,6,0,0,1,294.44,186.22Zm2.56,0a3.92,3.92,0,0,0,.49,2,3.73,3.73,0,0,0,1.3,1.4,3.59,3.59,0,0,0,3.72,0,3.56,3.56,0,0,0,1.29-1.4,4,4,0,0,0,.48-2,4.07,4.07,0,0,0-.48-2,3.73,3.73,0,0,0-1.29-1.41,3.36,3.36,0,0,0-1.87-.53,3.25,3.25,0,0,0-1.86.55,3.89,3.89,0,0,0-1.31,1.42A4.12,4.12,0,0,0,297,186.24Z" transform="translate(-2.99)"/><path class="cls-1" d="M321.12,180.7l.19,2.75-.08-.44a4.26,4.26,0,0,1,1.74-2,5.45,5.45,0,0,1,2.85-.74,3.7,3.7,0,0,1,2.6.93,3.22,3.22,0,0,1,1,2.44V192h-2.55v-7.44a2.31,2.31,0,0,0-.53-1.49,2,2,0,0,0-1.56-.58,3.06,3.06,0,0,0-1.75.54,3.62,3.62,0,0,0-1.25,1.5,5.09,5.09,0,0,0-.45,2.2V192h-2.55V180.7Z" transform="translate(-2.99)"/><path class="cls-1" d="M339.08,192.22a6.75,6.75,0,0,1-3.31-.77,5.55,5.55,0,0,1-2.15-2.12,6.15,6.15,0,0,1-.76-3.09,5.53,5.53,0,0,1,.86-3,6.47,6.47,0,0,1,2.26-2.18,6.27,6.27,0,0,1,3.16-.81,5.35,5.35,0,0,1,3.69,1.3,6.72,6.72,0,0,1,2,3.59l-9.29,3.26-.6-1.49,7.58-2.8-.51.38a3.64,3.64,0,0,0-1.09-1.55,2.92,2.92,0,0,0-2-.65,3.41,3.41,0,0,0-3.1,1.83,4.13,4.13,0,0,0-.46,2,4.38,4.38,0,0,0,.47,2,3.58,3.58,0,0,0,1.33,1.4,3.82,3.82,0,0,0,1.95.5,3.89,3.89,0,0,0,1.42-.27,7,7,0,0,0,1.32-.71l1.14,1.87a7.92,7.92,0,0,1-1.89.93A6.49,6.49,0,0,1,339.08,192.22Z" transform="translate(-2.99)"/><path class="cls-1" d="M348,170.92h2.55v21H348Z" transform="translate(-2.99)"/><path class="cls-1" d="M370.68,180.7l3.34,7.58-.52.06,3.1-7.64h2.47l-5.16,11.93-3.61-7.72L367,192.63l-5.19-11.93h2.5l3.48,7.93-.87-.19,2.5-5.81-.92-1.93Z" transform="translate(-2.99)"/><path class="cls-1" d="M386.74,192.22a6.76,6.76,0,0,1-3.32-.77,5.62,5.62,0,0,1-2.15-2.12,6.26,6.26,0,0,1-.76-3.09,5.53,5.53,0,0,1,.86-3,6.5,6.5,0,0,1,2.27-2.18,6.21,6.21,0,0,1,3.15-.81,5.33,5.33,0,0,1,3.69,1.3,6.8,6.8,0,0,1,2,3.59l-9.3,3.26-.59-1.49,7.58-2.8-.52.38a3.64,3.64,0,0,0-1.09-1.55,2.88,2.88,0,0,0-2-.65,3.44,3.44,0,0,0-3.1,1.83,4.13,4.13,0,0,0-.46,2,4.27,4.27,0,0,0,.48,2,3.51,3.51,0,0,0,1.33,1.4,3.81,3.81,0,0,0,1.94.5,3.94,3.94,0,0,0,1.43-.27,6.64,6.64,0,0,0,1.31-.71l1.14,1.87a8,8,0,0,1-1.88.93A6.54,6.54,0,0,1,386.74,192.22Z" transform="translate(-2.99)"/><path class="cls-1" d="M402.52,192.22a5.48,5.48,0,0,1-2.76-.68,5.65,5.65,0,0,1-1.88-1.71l.29-.76V192h-2.55v-21h2.53v12.36l-.06-1a4.92,4.92,0,0,1,1.92-1.48,6.68,6.68,0,0,1,2.84-.58,5.3,5.3,0,0,1,2.74.73,5.54,5.54,0,0,1,2,2.05,6.21,6.21,0,0,1,.74,3.12,6.34,6.34,0,0,1-.8,3.27,5.41,5.41,0,0,1-2.13,2.09A6,6,0,0,1,402.52,192.22Zm-.54-2.15a3.78,3.78,0,0,0,2-.51,3.7,3.7,0,0,0,1.34-1.41,4.1,4.1,0,0,0,.49-2,3.92,3.92,0,0,0-.5-2,3.78,3.78,0,0,0-1.36-1.39,3.72,3.72,0,0,0-1.94-.5,4.18,4.18,0,0,0-1.71.34,3.63,3.63,0,0,0-1.32.93,3.71,3.71,0,0,0-.78,1.42v2.31a3.86,3.86,0,0,0,.74,1.42,3.57,3.57,0,0,0,1.31,1A4.26,4.26,0,0,0,402,190.07Z" transform="translate(-2.99)"/></g></g></svg>